<?xml version="1.0" encoding="UTF-8"?>
<svg width="89px" height="51px" viewBox="0 0 89 51" version="1.1" xmlns="http://www.w3.org/2000/svg" xmlns:xlink="http://www.w3.org/1999/xlink">
    <!-- Generator: Sketch 50 (54983) - http://www.bohemiancoding.com/sketch -->
    <title>Group</title>
    <desc>Created with Sketch.</desc>
    <defs></defs>
    <g id="Page-1" stroke="none" stroke-width="1" fill="none" fill-rule="evenodd">
        <g id="Overview" transform="translate(-38.000000, -307.000000)">
            <g id="Too-Fast" transform="translate(40.000000, 309.000000)">
                <g id="Group">
                    <path d="M84.1781345,43.6989072 C82.9106102,35.3749948 81.2969857,28.9753591 79.3372609,24.5 C77.300902,19.8496342 73.5864485,15.2785156 68.1939004,10.7866442 L68.1939194,10.7866213 C67.7695557,10.4331358 67.1389842,10.490594 66.7854987,10.9149578 C66.7759133,10.9264652 66.7665877,10.9381864 66.7575287,10.9501127 L42.5725299,42.7902493 C41.9044098,43.6698454 42.0758451,44.9245173 42.9554413,45.5926373 C43.303368,45.856914 43.7282641,45.9999876 44.1651796,45.9999876 L82.2009205,45.9999938 C83.3054934,45.9999938 84.2009267,45.1045605 84.2009267,43.9999876 C84.2009267,43.8991965 84.1933076,43.7985496 84.1781345,43.6989072 Z" id="Oval-2-Copy-2" stroke="#F59D0C" stroke-width="3" fill="#F59D0C"></path>
                    <path d="M85,46.9556244 C85,21.0227491 65.9721019,0 42.5,0 C19.0278981,0 0,21.0227491 0,46.9556244 L85,46.9556244 Z" id="Oval-2" stroke="#606060" stroke-width="3"></path>
                    <path d="M57.6666118,58.3975703 C61.3029754,38.9375439 63.1211573,28.0797233 63.1211573,25.8241083 C63.1211573,22.4406858 60.6790741,19.6978799 57.6666118,19.6978799 C54.6541495,19.6978799 52.2120664,22.4406858 52.2120664,25.8241083 C52.2120664,28.0797233 54.0302482,38.9375439 57.6666118,58.3975703 Z" id="Oval-3" fill="#606060" transform="translate(57.666612, 39.047725) scale(-1, -1) rotate(80.000000) translate(-57.666612, -39.047725) "></path>
                </g>
            </g>
        </g>
    </g>
</svg>