<?xml version="1.0" encoding="UTF-8"?>
<svg width="192px" height="95px" viewBox="0 0 192 95" version="1.1" xmlns="http://www.w3.org/2000/svg" xmlns:xlink="http://www.w3.org/1999/xlink">
    <!-- Generator: Sketch 49.3 (51167) - http://www.bohemiancoding.com/sketch -->
    <title>Group</title>
    <desc>Created with Sketch.</desc>
    <defs></defs>
    <g id="Page-1" stroke="none" stroke-width="1" fill="none" fill-rule="evenodd">
        <g id="Daily-Speed" transform="translate(-98.000000, -409.000000)">
            <g id="Speed-Selector" transform="translate(22.000000, 174.000000)">
                <g id="Group" transform="translate(78.000000, 237.000000)">
                    <g id="Group-2-Copy" transform="translate(40.000000, 0.000000)" fill="#7EBD3F" stroke="#7EBD3F" stroke-width="3">
                        <path d="M102.627304,15.2812736 C76.8781504,5.09375787 60.9721788,0 54.9093896,0 C48.5199018,0 30.643721,5.24748692 1.28084722,15.7424608 L1.28083819,15.7424355 C0.760760759,15.9283233 0.489846507,16.5006212 0.675734274,17.0206986 C0.708360801,17.1119812 0.754086409,17.1980349 0.811476162,17.2761593 L53.2788178,88.6996962 C53.93275,89.5898908 55.1845121,89.7814194 56.0747067,89.1274873 C56.2623673,88.9896329 56.4245128,88.8200664 56.553837,88.6264286 L103.554691,18.2517907 C104.168159,17.3332414 103.920842,16.091296 103.002293,15.4778279 C102.884603,15.3992269 102.758903,15.3333397 102.627304,15.2812736 Z" id="Oval-2"></path>
                    </g>
                    <g id="Group-2-Copy-2" transform="translate(0.000000, 18.000000)" fill="#F59D0C" stroke="#F59D0C" stroke-width="3">
                        <path d="M187.979948,70.5031263 C183.52008,50.5541876 179.262672,36.8769618 175.207726,29.4714491 C171.067595,21.9103647 161.462646,12.2625616 146.392879,0.528039978 L146.392863,0.528060187 C145.957117,0.188754012 145.328814,0.26693353 144.989508,0.702679029 C144.97314,0.723698732 144.957619,0.745364124 144.942982,0.767623347 L99.5213765,69.8406113 C98.9144841,70.7635173 99.1706637,72.0036639 100.09357,72.6105562 C100.419889,72.8251399 100.801894,72.9394872 101.192446,72.9394872 L186.028111,72.9395068 C187.132691,72.9395068 188.028131,72.0440675 188.028131,70.9394872 C188.028131,70.7927062 188.011972,70.6463712 187.979948,70.5031263 Z" id="Oval-2"></path>
                        <path d="M88.7877267,70.1860991 C84.3278583,50.2371603 80.0704509,36.5599346 76.0155043,29.1544218 C71.8753732,21.5933374 62.2704243,11.9455344 47.2006573,0.211012735 L47.2006416,0.211032944 C46.7648961,-0.128273231 46.1365926,-0.0500937132 45.7972864,0.385651785 C45.7809188,0.406671489 45.7653977,0.42833688 45.7507603,0.450596104 L0.329155156,69.5235841 C-0.277737226,70.44649 -0.0215576028,71.6866366 0.90134836,72.293529 C1.22766741,72.5081127 1.60967298,72.6224599 2.00022422,72.6224599 L86.8358897,72.6224796 C87.9404701,72.6224796 88.8359093,71.7270403 88.8359093,70.6224599 C88.8359093,70.4756789 88.8197512,70.329344 88.7877267,70.1860991 Z" id="Oval-2-Copy" transform="translate(44.417955, 36.311240) scale(-1, 1) translate(-44.417955, -36.311240) "></path>
                    </g>
                    <path d="M187.979948,88.5031263 C183.52008,68.5541876 179.262672,54.8769618 175.207726,47.4714491 C171.067595,39.9103647 161.462646,30.2625616 146.392879,18.52804 L146.392863,18.5280602 C145.957117,18.188754 145.328814,18.2669335 144.989508,18.702679 C144.97314,18.7236987 144.957619,18.7453641 144.942982,18.7676233 L99.5213765,87.8406113 C98.9144841,88.7635173 99.1706637,90.0036639 100.09357,90.6105562 C100.419889,90.8251399 100.801894,90.9394872 101.192446,90.9394872 L186.028111,90.9395068 C187.132691,90.9395068 188.028131,90.0440675 188.028131,88.9394872 C188.028131,88.7927062 188.011972,88.6463712 187.979948,88.5031263 Z" id="Oval-2" stroke="#F59D0C" stroke-width="3" fill="#F59D0C"></path>
                    <path d="M88.7877267,88.1860991 C84.3278583,68.2371603 80.0704509,54.5599346 76.0155043,47.1544218 C71.8753732,39.5933374 62.2704243,29.9455344 47.2006573,18.2110127 L47.2006416,18.2110329 C46.7648961,17.8717268 46.1365926,17.9499063 45.7972864,18.3856518 C45.7809188,18.4066715 45.7653977,18.4283369 45.7507603,18.4505961 L0.329155156,87.5235841 C-0.277737226,88.44649 -0.0215576028,89.6866366 0.90134836,90.293529 C1.22766741,90.5081127 1.60967298,90.6224599 2.00022422,90.6224599 L86.8358897,90.6224796 C87.9404701,90.6224796 88.8359093,89.7270403 88.8359093,88.6224599 C88.8359093,88.4756789 88.8197512,88.329344 88.7877267,88.1860991 Z" id="Oval-2-Copy" stroke="#F59D0C" stroke-width="3" fill="#F59D0C" transform="translate(44.417955, 54.311240) scale(-1, 1) translate(-44.417955, -54.311240) "></path>
                    <path d="M187,91 C187,40.7420878 145.138624,0 93.5,0 C41.8613759,0 0,40.7420878 0,91 L187,91 Z" id="Oval-2" stroke="#606060" stroke-width="3"></path>
                    <path d="M94,91 C102,53.2864689 106,32.2440124 106,27.8726306 C106,21.3155578 100.627417,16 94,16 C87.372583,16 82,21.3155578 82,27.8726306 C82,32.2440124 86,53.2864689 94,91 Z" id="Oval-3" fill="#606060" transform="translate(94.000000, 53.500000) scale(-1, -1) translate(-94.000000, -53.500000) "></path>
                </g>
            </g>
        </g>
    </g>
</svg>