<?xml version="1.0" encoding="UTF-8"?>
<svg width="89px" height="51px" viewBox="0 0 89 51" version="1.1" xmlns="http://www.w3.org/2000/svg" xmlns:xlink="http://www.w3.org/1999/xlink">
    <!-- Generator: Sketch 50 (54983) - http://www.bohemiancoding.com/sketch -->
    <title>Group 2 Copy</title>
    <desc>Created with Sketch.</desc>
    <defs></defs>
    <g id="Page-1" stroke="none" stroke-width="1" fill="none" fill-rule="evenodd">
        <g id="Overview" transform="translate(-38.000000, -527.000000)">
            <g id="Too-Slow" transform="translate(39.000000, 529.000000)">
                <g id="Group-2-Copy">
                    <path d="M43.2744023,43.6591856 C41.4459866,33.0860173 39.2190283,25.8858801 36.5935273,22.058774 C33.909935,18.1469901 29.5604105,13.6094419 23.5449538,8.44612939 L23.5449551,8.44612786 C23.1258766,8.08641563 22.494542,8.13454152 22.1348298,8.55362003 C22.0997009,8.5945465 22.0679407,8.63824791 22.0398599,8.6842966 L1.13909025,42.9587096 C0.564008323,43.9017656 0.862310221,45.1324595 1.80536619,45.7075414 C2.11901309,45.8988055 2.47928014,45.9999876 2.84664413,45.9999876 L41.303649,45.9999912 C42.4082205,45.9999912 43.3036527,45.1045591 43.3036527,43.9999876 C43.3036527,43.8857601 43.2938668,43.7717425 43.2744023,43.6591856 Z" id="Oval-2-Copy" stroke="#F59D0C" stroke-width="3" fill="#F59D0C" transform="translate(22.075004, 27.102454) scale(-1, 1) translate(-22.075004, -27.102454) "></path>
                    <path d="M86,46.9556244 C86,21.0227491 66.9721019,0 43.5,0 C20.0278981,0 1,21.0227491 1,46.9556244 L86,46.9556244 Z" id="Oval-2" stroke="#606060" stroke-width="3"></path>
                    <path d="M32.2221674,58.3975703 C35.858531,38.9375439 37.6767128,28.0797233 37.6767128,25.8241083 C37.6767128,22.4406858 35.2346296,19.6978799 32.2221674,19.6978799 C29.2097051,19.6978799 26.7676219,22.4406858 26.7676219,25.8241083 C26.7676219,28.0797233 28.5858037,38.9375439 32.2221674,58.3975703 Z" id="Oval-3" fill="#606060" transform="translate(32.222167, 39.047725) scale(-1, -1) rotate(-80.000000) translate(-32.222167, -39.047725) "></path>
                </g>
            </g>
        </g>
    </g>
</svg>