<?xml version="1.0" encoding="UTF-8"?>
<svg width="89px" height="52px" viewBox="0 0 89 52" version="1.1" xmlns="http://www.w3.org/2000/svg" xmlns:xlink="http://www.w3.org/1999/xlink">
    <!-- Generator: Sketch 50 (54983) - http://www.bohemiancoding.com/sketch -->
    <title>Group</title>
    <desc>Created with Sketch.</desc>
    <defs></defs>
    <g id="Page-1" stroke="none" stroke-width="1" fill="none" fill-rule="evenodd">
        <g id="Overview" transform="translate(-38.000000, -418.000000)">
            <g id="Perfect" transform="translate(40.000000, 420.000000)">
                <g id="Group">
                    <path d="M61.182923,6.20375443 C51.819879,2.06791814 45.8057819,-1.13686838e-13 43.1406316,-1.13686838e-13 C40.2824182,-1.13686838e-13 33.6776286,2.20599828 23.3262629,6.61799483 L23.3262552,6.61797693 C22.8181847,6.8345286 22.5818619,7.42195098 22.7984136,7.93002153 C22.8042895,7.94380749 22.8104745,7.95745962 22.8169641,7.97096759 L41.3231972,46.4918716 C41.801519,47.4875031 42.9963942,47.9068654 43.9920257,47.4285436 C44.4125271,47.2265261 44.7491796,46.8838673 44.9437301,46.4598594 L62.192595,8.86729139 C62.6532373,7.86335692 62.212812,6.67608284 61.2088776,6.21544051 C61.2002539,6.21148363 61.1916021,6.20758818 61.182923,6.20375443 Z" id="Oval-2" stroke="#7EBD3F" stroke-width="3" fill="#7EBD3F"></path>
                    <path d="M85,47.8947368 C85,21.4432041 65.9721019,0 42.5,0 C19.0278981,0 0,21.4432041 0,47.8947368 L85,47.8947368 Z" id="Oval-2" stroke="#606060" stroke-width="3"></path>
                    <path d="M43.2323232,47.4736842 C46.8686869,27.6244573 48.6868687,16.5494802 48.6868687,14.2487529 C48.6868687,10.797662 46.2447855,8 43.2323232,8 C40.219861,8 37.7777778,10.797662 37.7777778,14.2487529 C37.7777778,16.5494802 39.5959596,27.6244573 43.2323232,47.4736842 Z" id="Oval-3" fill="#606060" transform="translate(43.232323, 27.736842) scale(-1, -1) translate(-43.232323, -27.736842) "></path>
                </g>
            </g>
        </g>
    </g>
</svg>